<svg width="379" height="141" viewBox="0 0 379 141" fill="none" xmlns="http://www.w3.org/2000/svg">
<path d="M2 57.1886C14.2794 54.4062 23.138 57.4494 27.9621 60.0578L34.4526 63.5357C39.8029 66.405 46.0303 63.7965 49.4509 57.2755C52.7839 50.7544 59.1867 47.9721 64.7124 50.7544L74.3605 55.4496C79.0091 57.7102 84.0086 58.7536 89.0957 58.6667L212.854 52.9281C223.73 52.5803 237.15 57.1016 246.622 63.3618C246.622 63.3618 259.077 71.361 258.989 75.3605C258.814 79.3601 254.516 79.621 254.516 79.621L92.4287 71.7957C90.5868 71.7088 89.0957 70.2307 89.0957 68.3178V65.7094C89.0957 63.7965 90.6745 62.2315 92.6041 62.2315L123.478 62.0576C125.408 62.0576 126.899 63.6227 126.899 65.4485V65.8833C126.899 67.4483 127.074 67.5353 128.74 67.5353L130.319 67.7092C130.319 67.7092 131.898 68.057 131.898 66.405V66.0572C131.898 63.7096 133.74 61.8837 136.108 61.7968L168.21 61.362C170.578 61.362 172.508 63.2749 172.508 65.6224V68.4917C172.508 69.9698 174.437 69.7959 175.928 69.8829C177.507 69.9698 178.121 69.5351 178.121 67.8831V64.2313C178.121 62.6662 179.437 61.362 181.015 61.362L210.135 61.8837C218.643 61.7098 224.958 62.9271 229.607 64.666C232.94 65.8833 236.097 67.6222 238.992 69.8829C241.711 71.9696 247.324 75.0997 256.972 74.9258L266.445 74.8389C273.637 74.7519 281.005 74.0563 288.372 72.7521L302.23 70.3176C305.739 69.709 308.107 73.6216 306.089 76.8387L301.178 84.6639C298.897 88.3157 302.318 92.6631 306.177 90.9241L317.755 84.9248C324.772 81.273 333.543 81.7077 333.543 81.7077H377" stroke="#F5DF59" stroke-width="3" stroke-linecap="round" stroke-linejoin="round"/>
</svg>
