<svg width="543" height="165" viewBox="0 0 543 165" fill="none" xmlns="http://www.w3.org/2000/svg">
<path d="M533.434 134.443H479.868H401.956C397.217 134.443 392.757 132.202 389.97 128.421L378.681 113.297C372.549 105.035 362.932 100.273 352.619 100.273L190.662 100.273C178.119 100.273 165.854 96.2121 155.82 88.7899L106.901 52.5196C99.0961 46.6379 102.998 34.3144 112.754 34.1743C144.531 33.8943 190.384 33.7542 190.802 33.7542L298.682 33.7542C298.682 33.7542 384.395 36.8351 440.561 96.2121C455.335 111.897 439.586 125.2 439.725 126.041C439.725 126.321 379.099 126.041 379.099 126.041H356.888C354.797 128.421 351.87 129.822 348.525 129.822C345.18 129.822 342.254 128.281 340.163 126.041H285.391C283.3 128.421 280.234 129.822 277.028 129.822C273.684 129.822 270.757 128.281 268.666 126.041H194.991C187.703 125.814 170.1 124.006 157.986 118.585C142.843 111.81 127.7 103.945 114.55 108.621C101.399 113.297 94.2264 121.774 88.249 127.753C74.7001 141.304 54.6644 130.912 44.1871 124.07C33.7097 117.227 19.5881 115.403 9.11072 118.596" stroke="#8DE8FE" stroke-width="4" stroke-miterlimit="10" stroke-linecap="round"/>
<rect x="191.503" y="68.5961" width="36.0872" height="10.5964" rx="5.29821" stroke="#8DE8FE" stroke-width="4"/>
<rect x="247.99" y="68.5961" width="35.1762" height="10.5964" rx="5.29821" stroke="#8DE8FE" stroke-width="4"/>
<rect x="303.565" y="68.5961" width="36.0872" height="10.5964" rx="5.29821" stroke="#8DE8FE" stroke-width="4"/>
</svg>
